<?xml version="1.0" encoding="iso-8859-1"?>
<!-- Generator: Adobe Illustrator 18.1.1, SVG Export Plug-In . SVG Version: 6.00 Build 0)  -->
<svg version="1.1" id="Capa_1" xmlns="http://www.w3.org/2000/svg" xmlns:xlink="http://www.w3.org/1999/xlink" x="0px" y="0px" width="110"
	 viewBox="0 0 612.003 612.003" style="enable-background:new 0 0 612.003 612.003;" xml:space="preserve">
<g>
	<path id="SVG_categorie" d="M213.126,213.128c-51.293,51.293-51.293,134.457,0,185.75s134.457,51.293,185.75,0s51.293-134.457,0-185.75
		C347.583,161.832,264.422,161.832,213.126,213.128z M416.559,294.108c0.656,6.131-3.78,11.639-9.911,12.298l-81.154,8.727
		c-0.999,2.222-2.393,4.313-4.218,6.139c-8.079,8.079-21.176,8.079-29.252,0c-8.077-8.079-8.077-21.176,0-29.255
		c0.184-0.184,0.385-0.343,0.575-0.519l-8.629-59.065c-0.891-6.103,3.333-11.773,9.436-12.663
		c6.092-0.865,11.773,3.331,12.663,9.436l8.523,58.34c2.429,1.008,4.71,2.496,6.686,4.47c0.324,0.324,0.611,0.667,0.91,1.008
		l82.075-8.83C410.414,283.539,415.9,287.98,416.559,294.108z M605.269,94.277L517.727,6.735c-7.75-7.75-19.894-8.953-29.012-2.873
		L375.16,79.567c-12.072,8.049-13.763,25.129-3.504,35.388l0.664,0.664l-23.616,23.616c-13.035-3.146-26.544-4.788-40.322-4.788
		c-46.271,0-89.9,18.144-122.846,51.089c-32.602,32.605-50.743,75.78-51.084,121.57c-0.106,14.227,1.519,28.18,4.76,41.617
		l-23.593,23.593l-0.664-0.664c-10.26-10.26-27.34-8.568-35.388,3.504L3.863,488.714c-6.08,9.121-4.877,21.262,2.873,29.012
		l87.541,87.541c7.75,7.75,19.891,8.953,29.012,2.873l113.555-75.702c12.072-8.049,13.763-25.129,3.504-35.388l-0.664-0.664
		l23.618-23.618c13.035,3.146,26.541,4.788,40.316,4.788c46.274,0,89.9-18.144,122.843-51.089
		c44.361-44.358,59.816-106.71,46.232-163.092l23.688-23.688l0.664,0.664c10.26,10.26,27.34,8.568,35.388-3.504l75.702-113.552
		C614.219,114.171,613.019,102.026,605.269,94.277z M223.891,480.59l-92.477-92.477l15.494-15.494
		c8.37,20.55,20.821,39.392,36.952,55.525c16.12,16.12,34.978,28.56,55.545,36.932L223.891,480.59z M410.671,410.673
		c-28.727,28.727-66.746,44.545-107.053,44.545c-39.4,0-76.321-15.224-103.965-42.865c-27.937-27.937-43.161-65.255-42.865-105.082
		c0.293-39.886,16.114-77.513,44.545-105.942c28.727-28.724,66.746-44.545,107.053-44.545c39.4,0,76.324,15.224,103.971,42.865
		C470.069,257.369,469.312,352.032,410.671,410.673z M465.013,239.471c-8.219-20.274-20.492-39.235-36.868-55.612
		c-16.12-16.12-34.978-28.56-55.548-36.932l15.514-15.514l92.48,92.48L465.013,239.471z"/>
</g>
<g>
</g>
<g>
</g>
<g>
</g>
<g>
</g>
<g>
</g>
<g>
</g>
<g>
</g>
<g>
</g>
<g>
</g>
<g>
</g>
<g>
</g>
<g>
</g>
<g>
</g>
<g>
</g>
<g>
</g>

</svg>
