<svg>
	<defs>


<svg id="suit" viewBox="0 0 95.844 95.844">
	<polygon points="47.918,39.699 52.742,12.66 48.872,7.32 50.771,3.511 45.066,3.511 46.969,7.32 43.093,12.66"/>
	<path d="M75.541,86.669h7.621l-1.902-32.388L77.443,11.43L59.35,3.812l-1.905-3.809l-1.903,7.618l-7.623,43.807L40.301,7.618
		L38.393,0L36.49,3.809l-18.094,7.617l-3.811,42.855l-1.902,32.388h7.619l6.952-42.032l2.568,9.639l-7.621,32.045l21.905,9.523
		l3.809-18.743l3.807,18.743l21.909-9.523l-7.625-32.045l2.57-9.639L75.541,86.669z M67.999,27.259l-7.741,1.073l5.119-6.312
		l2.622,2.026V27.259z"/>
</svg>

<svg id="shoes58" viewBox="0 0 62.122 62.122" width="110px">
	<title>Shoes58</title>
	<path d="M15.456,41.633c0,0,1.89-2.209,3.724-2.327c1.834-0.119,11.062,3.636,20.345,2.621c9.283-1.018,17.399-4.186,22.29-7.966
		c0,0,0.611-1.001,0.11-2.89l-0.418,0.038c-1.231,0.965-11.511,8.691-24.825,8.691c-0.947,0-1.901-0.041-2.836-0.12
		c-6.424-0.55-9.871-1.388-11.929-1.889c-1.111-0.271-1.844-0.449-2.439-0.449c-0.771,0-1.479,0.31-3.034,1.318l-0.292,0.19
		l-0.347-0.023L0.568,37.78c-0.275,0.978-0.503,2.391,0.102,3.296C1.67,42.577,15.456,41.633,15.456,41.633z"/>
	<path d="M0.916,36.761l14.96,1.027c1.676-1.089,2.565-1.487,3.601-1.487c2.008,0,4.564,1.495,14.457,2.342
		c0.929,0.079,1.843,0.117,2.746,0.117c10.634,0,19.398-5.157,22.783-7.46c0.972-0.663,1.503-1.091,1.503-1.091
		s-2.407-2.776-8.535-2.776c-2.788,0-5.143,0.11-6.956,0.11c-2.176,0-3.571-0.159-3.989-0.857c-0.766-1.281-5.8-2.776-5.8-2.776
		c-1.569-3.463-8.371-3.889-11.616-3.889c-1.058,0-1.736,0.044-1.736,0.044v3.523c-2.518,1.992-5.448,2.657-8.237,2.657
		c-5.577,0-10.587-2.657-10.587-2.657c-5.035,4.804-3.174,13.132-3.174,13.132L0.916,36.761z M25.922,27.006l2.182-3.712
		c0.154-0.262,0.401-0.448,0.695-0.524c0.292-0.077,0.599-0.033,0.86,0.121l1.521,0.894c0.164-0.174,0.423-0.228,0.638-0.101
		c0.215,0.126,0.294,0.379,0.222,0.606l1.521,0.894c0.54,0.319,0.72,1.017,0.402,1.555l-2.182,3.711
		c-0.153,0.262-0.4,0.448-0.694,0.524c-0.095,0.024-0.192,0.037-0.288,0.037c-0.2,0-0.396-0.053-0.573-0.156l0.264-0.449
		l0.263-0.449c0.04,0.023,0.107,0.005,0.129-0.033l2.182-3.711c0.026-0.045,0.013-0.104-0.032-0.13l-1.501-0.882l-0.932,1.583
		c-0.097,0.166-0.271,0.257-0.45,0.257c-0.089,0-0.18-0.023-0.264-0.072c-0.248-0.146-0.33-0.465-0.186-0.713l0.931-1.583
		l-1.502-0.884l-0.129,0.033l-2.183,3.711c-0.026,0.045-0.011,0.104,0.034,0.129l-0.264,0.449l-0.263,0.449
		C25.787,28.243,25.605,27.546,25.922,27.006z"/>
</svg>



<svg id="cart" width="100%" height="125%" viewBox="2 0 100 85" >
  <path id="svg_1" fill="#ffffff" d="m14.999,91c0,5.523 4.477,10 10.001,10s9.999,-4.477 9.999,-10s-4.475,-10 -9.999,-10s-10.001,4.477 -10.001,10zm50,0c0,5.523 4.477,10 10.001,10s9.999,-4.477 9.999,-10s-4.475,-10 -9.999,-10s-10.001,4.477 -10.001,10zm-32.264,-23.638l55.342,-15.812c1.058,-0.303 1.923,-1.45 1.923,-2.55v-27.5h-70.5v-8.5c0,-1.1 -0.899,-2 -2,-2h-15.5c-1.101,0 -2,0.9 -2,2v8h9.718l9.839,45.284l0.943,4.716v7.5c0,1.1 0.899,2 2,2h2.5h50h13c1.101,0 2,-0.9 2,-2v-7.5h-56.239c-5.748,0 -5.865,-2.253 -1.026,-3.638z"/>
<circle id="svg_2" r="34.07537" cy="20" cx="62.25" stroke-linecap="null" stroke-linejoin="null" fill="#3F51B5"/>
<text font-weight="bold" transform="matrix(2.1106928560326748,0,0,2.129052277984602,-65.3584283903659,-19.319146851608494) " xml:space="preserve" text-anchor="middle" font-family="serif" font-size="24" id="svg_3" y="25.41743" x="60.40827" stroke-linecap="null" stroke-linejoin="null" stroke-width="0" fill=" #FFFFFF" style="text-shadow: aliceblue; text-shadow: 2px 2px rgba(75, 150, 120, 0.62);">7</text>
</svg>

<svg id="cart-add" viewBox="0 0 485.213 485.212">
			<polygon points="424.562,363.906 172.036,363.906 65.893,121.304 0.001,121.304 0.001,90.978 85.737,90.978 191.876,333.584 
				424.562,333.584"/>
		<path d="M272.934,439.727c0,25.109-20.381,45.485-45.49,45.485c-25.142,0-45.488-20.376-45.488-45.485
			c0-25.118,20.346-45.49,45.488-45.49C252.553,394.237,272.934,414.609,272.934,439.727z"/>
		<path d="M424.562,439.727c0,25.109-20.376,45.485-45.485,45.485c-25.118,0-45.49-20.376-45.49-45.485
			c0-25.118,20.372-45.49,45.49-45.49C404.187,394.237,424.562,414.609,424.562,439.727z"/>
			<path d="M379.077,0c-58.609,0-106.144,47.532-106.144,106.141c0,58.606,47.534,106.141,106.144,106.141
				c58.604,0,106.135-47.534,106.135-106.141C485.212,47.532,437.682,0,379.077,0z M439.722,121.304h-45.485v45.49h-30.327v-45.49
				h-45.485V90.978h45.485V45.49h30.327v45.488h45.485V121.304z" style="fill: #199819;"/>
		<path d="M379.077,242.606c-59.234,0-109.256-38.144-128.088-90.978h-99.36l60.654,151.629h212.279l35.008-87.482
			C436.944,232.42,409.255,242.606,379.077,242.606z"/>
</svg>


<svg id="clothing2" viewBox="0 0 890.955 890.954" >
	<path id="SVG_categorie" d="M486.399,180.712c24.521,0,40.811-17.122,44.409-41.096l12.34-98.526c0-22.689-19.889-41.09-44.411-41.09H392.23
		c-24.531,0-44.418,18.401-44.418,41.09l12.338,98.526c3.086,26.825,19.888,41.096,44.412,41.096
		c18.837,0,22.951-5.714,43.514-5.714C470.172,174.998,473.83,180.712,486.399,180.712"/>
	<polygon points="540.397,451.477 332.307,561.57 326.493,596.463 545.269,480.717 		"/>
	<polygon points="519.69,327.246 357.017,413.31 335.468,542.607 537.749,435.59 		"/>
	<polygon points="360.179,394.339 517.04,311.352 512.63,284.905 365.439,362.781 		"/>
	<path d="M312.679,740.73l23.695,28.174L572.484,643.99l-21.918-131.504L320.171,634.385l-7.492,44.951
		C310.817,688.498,297.052,723.77,312.679,740.73"/>
	<path d="M383.321,824.719l45.026,53.535c15.627,16.934,18.734,16.934,34.367,0L578.375,740.73
		c5.718-6.205,7.439-14.475,7.266-23.057L383.321,824.719z"/>
	<path d="M507.334,253.134l-8.154-48.92c-15.627-16.955-91.673-16.955-107.312,0l-20.109,120.647L507.334,253.134z"/>
	<path d="M578.375,679.336l-0.597-3.576L356.501,792.834l16.749,19.912L583.558,701.48
		C581.625,692.359,578.972,684.197,578.375,679.336"/>
</svg>

<svg id="cart-plus" viewBox="0 0 44.238 44.238">
	<path d="M22.119,44.237C9.922,44.237,0,34.315,0,22.12C0,9.924,9.922,0.001,22.119,0.001S44.238,9.923,44.238,22.12
		S34.314,44.237,22.119,44.237z M22.119,1.501C10.75,1.501,1.5,10.751,1.5,22.12s9.25,20.619,20.619,20.619
		s20.619-9.25,20.619-20.619S33.488,1.501,22.119,1.501z"/>
	<path d="M31.434,22.869H12.805c-0.414,0-0.75-0.336-0.75-0.75s0.336-0.75,0.75-0.75h18.628c0.414,0,0.75,0.336,0.75,0.75
		S31.848,22.869,31.434,22.869z"/>
	<path d="M22.119,32.183c-0.414,0-0.75-0.336-0.75-0.75V12.806c0-0.414,0.336-0.75,0.75-0.75s0.75,0.336,0.75,0.75v18.626
		C22.869,31.847,22.533,32.183,22.119,32.183z"/>
</svg>


<svg id="rmv-cart" viewBox="0 -200 800 1050">
	<path d="M585.82,235.876H209.179c-39.621,0-71.728,32.082-71.728,71.703l38.865,412.675c0,39.597,32.131,71.703,71.751,71.703     h304.89c39.62,0,71.751-32.106,71.751-71.703l32.888-412.675C657.547,267.958,625.441,235.876,585.82,235.876z M301.839,666.41     c0,19.786-16.053,35.814-35.864,35.814c-19.81,0-35.863-16.053-35.863-35.814V343.467c0-19.786,16.053-35.888,35.863-35.888     c19.811,0,35.864,16.102,35.864,35.888V666.41L301.839,666.41z M427.385,666.41c0,19.786-16.053,35.814-35.863,35.814     c-19.81,0-35.863-16.053-35.863-35.814V343.467c0-19.786,16.053-35.888,35.863-35.888c19.811,0,35.863,16.102,35.863,35.888     V666.41z M552.933,666.41c0,19.786-16.054,35.814-35.864,35.814s-35.863-16.053-35.863-35.814V343.467     c0-19.786,16.053-35.888,35.863-35.888s35.864,16.102,35.864,35.888V666.41z M190.027,200.013L624.27,88.299     c23.981-6.148,38.425-30.594,32.252-54.576c-6.172-23.982-30.618-38.425-54.6-32.326L468.446,35.748     c-12.369-18.347-35.205-27.983-57.845-22.177l-52.088,13.443c-22.641,5.831-37.986,25.275-39.987,47.306l-150.847,38.84     c-23.982,6.148-38.401,30.594-32.253,54.576C141.599,191.742,166.045,206.136,190.027,200.013z" style="
	    fill: tomato;
	"/>
</svg>


<svg id="user2" viewBox="0 0 24 24" >
    <path d="M12 12c2.21 0 4-1.79 4-4s-1.79-4-4-4-4 1.79-4 4 1.79 4 4 4zm0 2c-2.67 0-8 1.34-8 4v2h16v-2c0-2.66-5.33-4-8-4z"></path>
    <path d="M0 0h24v24h-24z" fill="none"></path>
</svg>


<svg id="user" viewBox="0 0 409.165 409.164" color="currentColor">

	<path d="M204.583,216.671c50.664,0,91.74-48.075,91.74-107.378c0-82.237-41.074-107.377-91.74-107.377    c-50.668,0-91.74,25.14-91.74,107.377C112.844,168.596,153.916,216.671,204.583,216.671z" />
	<path d="M407.164,374.717L360.88,270.454c-2.117-4.771-5.836-8.728-10.465-11.138l-71.83-37.392    c-1.584-0.823-3.502-0.663-4.926,0.415c-20.316,15.366-44.203,23.488-69.076,23.488c-24.877,0-48.762-8.122-69.078-23.488    c-1.428-1.078-3.346-1.238-4.93-0.415L58.75,259.316c-4.631,2.41-8.346,6.365-10.465,11.138L2.001,374.717    c-3.191,7.188-2.537,15.412,1.75,22.005c4.285,6.592,11.537,10.526,19.4,10.526h362.861c7.863,0,15.117-3.936,19.402-10.527    C409.699,390.129,410.355,381.902,407.164,374.717z" />

</svg>





<svg id="close" viewBox="0 0 356.218 356.218" style="enable-background:new 0 0 356.218 356.218;">
	<path d="M350.676,261.501c7.388,7.389,7.388,19.365,0.001,26.754l-62.421,62.421c-7.39,7.389-19.366,7.387-26.755,0l-83.392-83.394   l-83.395,83.394c-7.386,7.388-19.364,7.387-26.752,0L5.541,288.254c-7.388-7.388-7.387-19.364,0.001-26.75l83.395-83.395   L5.543,94.715c-7.387-7.387-7.387-19.365-0.001-26.751L67.965,5.542c7.387-7.388,19.365-7.387,26.75,0l83.395,83.395l83.393-83.395   c7.388-7.387,19.364-7.388,26.753,0l62.422,62.421c7.387,7.388,7.388,19.366,0,26.753l-83.395,83.393L350.676,261.501z" fill="#FFBDBD"/>

</svg>



<svg id="close1" viewBox="0 0 48 48">

			<path d="M23.943,20.89c-0.256,0-0.512-0.098-0.707-0.293c-0.391-0.391-0.391-1.023,0-1.414l4.112-4.11
				c0.391-0.391,1.022-0.391,1.414,0c0.391,0.391,0.391,1.023,0,1.414l-4.111,4.11C24.455,20.792,24.199,20.89,23.943,20.89z"/>
			<path d="M15.533,29.3c-0.256,0-0.512-0.098-0.707-0.293c-0.391-0.391-0.391-1.022,0-1.414l4.219-4.22
				c0.391-0.391,1.023-0.391,1.414,0s0.391,1.023,0,1.414l-4.219,4.22C16.045,29.202,15.789,29.3,15.533,29.3z"/>
			<path d="M28.133,25.078c-0.256,0-0.512-0.098-0.707-0.293c-0.391-0.391-0.391-1.023,0-1.414l4.109-4.111
				c0.391-0.391,1.023-0.391,1.415,0c0.391,0.391,0.391,1.023,0,1.414l-4.109,4.111C28.645,24.98,28.389,25.078,28.133,25.078z"/>
			<path d="M19.72,33.486c-0.256,0-0.512-0.098-0.707-0.293c-0.391-0.391-0.391-1.022,0-1.413l4.225-4.224
				c0.391-0.392,1.024-0.392,1.415,0c0.391,0.391,0.391,1.022,0,1.413l-4.226,4.224C20.231,33.391,19.976,33.486,19.72,33.486z"/>
			<path d="M19.754,25.078c-0.256,0-0.512-0.098-0.707-0.293l-4.167-4.166c-0.391-0.391-0.391-1.023,0-1.414s1.023-0.391,1.414,0
				l4.167,4.166c0.391,0.391,0.391,1.023,0,1.414C20.266,24.98,20.01,25.078,19.754,25.078z"/>
			<path d="M28.109,33.434c-0.256,0-0.512-0.098-0.707-0.293l-4.168-4.166c-0.391-0.391-0.391-1.022,0-1.414
				c0.391-0.391,1.024-0.391,1.415,0l4.168,4.166c0.392,0.392,0.392,1.023,0,1.414C28.622,33.336,28.365,33.434,28.109,33.434z"/>
			<path d="M23.941,20.891c-0.256,0-0.512-0.098-0.707-0.293l-4.167-4.166c-0.391-0.391-0.391-1.023,0-1.414s1.023-0.391,1.414,0
				l4.167,4.166c0.391,0.391,0.391,1.023,0,1.414C24.453,20.793,24.197,20.891,23.941,20.891z"/>
			<path d="M32.297,29.245c-0.256,0-0.512-0.099-0.707-0.293l-4.168-4.166c-0.391-0.392-0.391-1.023,0-1.414s1.023-0.391,1.415,0
				l4.168,4.166c0.392,0.392,0.392,1.022,0,1.414C32.809,29.146,32.553,29.245,32.297,29.245z"/>
			<path d="M30.207,34.277c-1.01,0-2.02-0.385-2.789-1.152c-0.391-0.391-0.391-1.023,0-1.414s1.023-0.391,1.414,0
				c0.759,0.759,1.995,0.757,2.756-0.004c0.369-0.369,0.572-0.857,0.573-1.379c0-0.52-0.202-1.008-0.57-1.375
				C31.2,28.562,31.2,27.93,31.59,27.539c0.391-0.393,1.021-0.393,1.414-0.002c0.747,0.746,1.158,1.738,1.157,2.793
				c-0.001,1.054-0.413,2.045-1.159,2.791C32.23,33.893,31.218,34.277,30.207,34.277z"/>
			<path d="M15.603,20.896c-0.256,0-0.513-0.098-0.708-0.294c-1.537-1.541-1.534-4.046,0.006-5.585
				c1.54-1.538,4.044-1.539,5.583-0.003c0.391,0.391,0.391,1.023,0.001,1.414c-0.391,0.392-1.023,0.391-1.414,0.002
				c-0.76-0.761-1.996-0.758-2.756,0.001c-0.761,0.761-0.763,1.998-0.004,2.759c0.39,0.391,0.389,1.024-0.002,1.414
				C16.114,20.799,15.858,20.896,15.603,20.896z"/>
			<path d="M17.637,34.354c-0.001,0-0.002,0-0.003,0c-1.053-0.002-2.044-0.412-2.792-1.158c-1.539-1.539-1.539-4.045-0.001-5.584
				c0.39-0.394,1.023-0.393,1.414-0.002s0.391,1.022,0.001,1.414c-0.759,0.761-0.759,1.998,0,2.758
				c0.369,0.367,0.859,0.57,1.379,0.572h0.001c0.519,0,1.007-0.203,1.375-0.571c0.39-0.394,1.023-0.392,1.414-0.003
				c0.391,0.391,0.392,1.023,0.002,1.414C19.682,33.939,18.691,34.354,17.637,34.354z"/>
			<path d="M32.111,21.097c-0.256,0-0.512-0.098-0.709-0.293c-0.389-0.391-0.389-1.024,0-1.414c0.371-0.369,0.574-0.859,0.574-1.38
				c0-0.52-0.203-1.01-0.574-1.379c-0.736-0.737-2.021-0.737-2.758,0.001c-0.391,0.391-1.023,0.391-1.414,0
				c-0.391-0.391-0.391-1.024,0-1.414c0.746-0.747,1.74-1.158,2.793-1.158l0,0c1.056,0,2.047,0.411,2.793,1.158
				c0.746,0.745,1.158,1.737,1.158,2.792c0,1.056-0.412,2.048-1.16,2.794C32.623,20.999,32.367,21.097,32.111,21.097z"/>
		</g>
		<path d="M37.292,48H11.917C4.344,48,0,44.014,0,37.062V12.125C0,4.873,4.27,0,10.625,0h27.584C42.918,0,48,4.524,48,11.834v25.083
			C48,43.132,43.296,48,37.292,48z M10.625,2C4.259,2,2,7.454,2,12.125v24.938C2,44.449,7.393,46,11.917,46h25.375
			C42.256,46,46,42.095,46,36.917V11.834C46,5.76,41.956,2,38.209,2H10.625z"/>
		<path d="M37.135,43.334H10.938c-3.463,0-6.281-2.812-6.281-6.268V10.935c0-3.456,2.818-6.268,6.281-6.268h26.197
			c3.463,0,6.28,2.812,6.28,6.268v26.131C43.415,40.521,40.598,43.334,37.135,43.334z M10.938,6.667
			c-2.361,0-4.281,1.914-4.281,4.268v26.131c0,2.354,1.92,4.269,4.281,4.269h26.197c2.36,0,4.28-1.914,4.28-4.269V10.935
			c0-2.354-1.92-4.268-4.28-4.268H10.938z"/>
</svg>

<svg version="1.1" id="close2" viewBox="0 0 27.512 27.512" >

		<path d="M25.324,0.627H2.189C0.979,0.627,0,1.607,0,2.813v21.884c0,1.208,0.979,2.188,2.189,2.188h23.135
			c1.205,0,2.188-0.98,2.188-2.188V2.813C27.512,1.607,26.529,0.627,25.324,0.627z M19.77,17.54l-2.229,2.229
			c0,0-3.523-3.783-3.785-3.783c-0.26,0-3.783,3.783-3.783,3.783L7.744,17.54c0,0,3.785-3.471,3.785-3.78
			c0-0.314-3.785-3.786-3.785-3.786l2.229-2.228c0,0,3.553,3.782,3.783,3.782s3.785-3.782,3.785-3.782l2.229,2.228
			c0,0-3.787,3.525-3.787,3.786C15.982,14.014,19.77,17.54,19.77,17.54z"/>

</svg>


<svg id="close3" viewBox="0 0 468.067 468.067"  >
	<path d="M431.38,0.225H36.685C16.458,0.225,0,16.668,0,36.898v394.274c0,20.215,16.458,36.671,36.685,36.671H431.38
		c20.232,0,36.688-16.456,36.688-36.671V36.898C468.062,16.668,451.612,0.225,431.38,0.225z M381.256,326.924
		c14.233,14.239,14.233,37.321,0,51.53c-7.116,7.11-16.455,10.681-25.771,10.681c-9.327,0-18.643-3.57-25.747-10.681l-95.708-95.695
		l-95.71,95.689c-7.105,7.11-16.42,10.681-25.742,10.681c-9.327,0-18.648-3.57-25.765-10.681c-14.236-14.215-14.236-37.291,0-51.524
		l95.678-95.689l-95.678-95.704c-14.236-14.236-14.236-37.303,0-51.521c14.227-14.233,37.271-14.233,51.506,0l95.71,95.692
		l95.708-95.692c14.232-14.233,37.285-14.233,51.518,0c14.233,14.218,14.233,37.285,0,51.521l-95.683,95.704L381.256,326.924z"/>
</svg>

<svg  id="close4" viewBox="0 0 476.737 476.737">

			<path  d="M238.369,0C106.726,0,0,106.726,0,238.369c0,131.675,106.726,238.369,238.369,238.369
				c131.675,0,238.369-106.694,238.369-238.369C476.737,106.726,370.043,0,238.369,0z M348.813,150.395l-88.578,88.61l78.407,87.338
				c6.198,6.198,6.198,16.304,0,22.47c-6.166,6.198-16.273,6.198-22.438,0l-78.407-87.338l-87.37,87.338
				c-6.198,6.198-16.273,6.198-22.47,0c-6.198-6.166-6.198-16.273,0-22.47l88.578-88.578l-78.376-87.37
				c-6.198-6.198-6.198-16.273,0-22.47s16.273-6.198,22.47,0l78.407,87.37l87.338-87.37c6.198-6.198,16.273-6.198,22.47,0
				C355.042,134.122,355.01,144.197,348.813,150.395z"/>
</svg>

<svg  id="close5"  viewBox="0 0 612 612"  >
			<path d="M535.5,0h-459C34.253,0,0,34.253,0,76.5v459C0,577.747,34.253,612,76.5,612h459c42.247,0,76.5-34.253,76.5-76.5v-459
				C612,34.253,577.747,0,535.5,0z M400.669,373.626c7.478,7.478,7.478,19.584,0,27.043c-7.479,7.478-19.584,7.478-27.043,0
				L306,333.043l-67.626,67.606c-7.478,7.479-19.584,7.479-27.043,0c-7.478-7.478-7.478-19.584,0-27.043L278.957,306l-67.626-67.607
				c-7.478-7.478-7.478-19.584,0-27.042c7.478-7.478,19.584-7.478,27.043,0L306,278.957l67.626-67.626
				c7.478-7.478,19.584-7.478,27.043,0c7.478,7.478,7.478,19.584,0,27.043L333.043,306L400.669,373.626z"/>
</svg>


<svg id="password" viewBox="0 0 417.5 417.499">
	<path d="M384.691,32.812c-43.75-43.75-114.656-43.75-158.406,0c-35.859,35.875-72.672,120.375-60.656,173.813L0.019,372.249v45.25   h45.25v-45.25h45.25v-45.312h45.266l75.109-75.063c53.391,12,137.922-24.812,173.797-60.688   C428.41,147.438,428.41,76.5,384.691,32.812z M322.441,95c-24.969-24.938-37.625-52.813-28.281-62.188   c9.375-9.375,37.25,3.313,62.25,28.25c24.969,25,37.625,52.875,28.281,62.25C375.316,132.688,347.441,120,322.441,95z"/>
</svg>

<svg id="home" viewBox="0 0 512 512">
	<path d="M512,296l-96-96V56h-64v80l-96-96L0,296v16h64v160h160v-96h64v96h160V312h64V296z"/>
</svg>


<svg id="email" viewBox="0 0 79.536 79.536">
	<path d="M39.773,1.31L0,31.004v47.222h79.536V31.004L39.773,1.31z M28.77,22.499
		c1.167-2.133,2.775-3.739,4.815-4.805c2.035-1.075,4.357-1.616,6.983-1.616c2.214,0,4.191,0.435,5.921,1.292
		c1.729,0.87,3.045,2.094,3.967,3.687c0.9,1.595,1.367,3.334,1.367,5.217c0,2.247-0.694,4.279-2.082,6.097
		c-1.74,2.292-3.961,3.436-6.68,3.436c-0.732,0-1.279-0.122-1.654-0.38c-0.365-0.262-0.621-0.632-0.743-1.129
		c-1.022,1.012-2.231,1.52-3.589,1.52c-1.465,0-2.679-0.507-3.643-1.509c-0.966-1.012-1.447-2.361-1.447-4.031
		c0-2.084,0.578-3.966,1.743-5.672c1.416-2.084,3.218-3.13,5.424-3.13c1.571,0,2.731,0.601,3.475,1.805l0.331-1.468h3.5
		l-1.998,9.479c-0.125,0.606-0.187,0.986-0.187,1.163c0,0.228,0.052,0.38,0.149,0.497c0.099,0.111,0.223,0.165,0.357,0.165
		c0.436,0,0.979-0.248,1.646-0.769c0.901-0.663,1.627-1.574,2.181-2.695c0.554-1.129,0.839-2.299,0.839-3.508
		c0-2.165-0.782-3.977-2.352-5.445c-1.573-1.45-3.77-2.185-6.578-2.185c-2.393,0-4.417,0.487-6.077,1.468
		c-1.66,0.966-2.913,2.343-3.765,4.114c-0.839,1.76-1.258,3.607-1.258,5.52c0,1.856,0.479,3.552,1.411,5.074
		c0.945,1.533,2.26,2.641,3.956,3.345c1.696,0.697,3.643,1.046,5.828,1.046c2.097,0,3.909-0.293,5.432-0.881
		c1.522-0.587,2.739-1.457,3.666-2.641h2.807c-0.88,1.792-2.227,3.192-4.049,4.215c-2.092,1.163-4.64,1.74-7.644,1.74
		c-2.918,0-5.426-0.487-7.542-1.468c-2.121-0.986-3.689-2.434-4.73-4.35c-1.028-1.918-1.535-4.008-1.535-6.268
		C27.017,26.952,27.595,24.64,28.77,22.499z M2.804,31.941l29.344,19.68L2.804,74.333V31.941z M5.033,75.844l34.74-26.885
		l34.729,26.885H5.033z M76.729,74.333L47.391,51.621l29.339-19.68V74.333z M41.205,24.661c0.466,0.531,0.699,1.295,0.699,2.292
		c0,0.891-0.174,1.856-0.513,2.879c-0.334,1.036-0.743,1.826-1.209,2.361c-0.318,0.375-0.658,0.652-0.992,0.826
		c-0.439,0.249-0.906,0.37-1.41,0.37c-0.674,0.006-1.23-0.264-1.691-0.794c-0.45-0.531-0.673-1.346-0.673-2.465
		c0-0.839,0.158-1.805,0.487-2.889c0.329-1.088,0.81-1.916,1.453-2.509c0.647-0.588,1.346-0.881,2.1-0.881
		C40.162,23.856,40.749,24.125,41.205,24.661z"/>
</svg>

	</defs>
</svg>