<?xml version="1.0" encoding="iso-8859-1"?>
<!-- Generator: Adobe Illustrator 16.0.0, SVG Export Plug-In . SVG Version: 6.00 Build 0)  -->
<!DOCTYPE svg PUBLIC "-//W3C//DTD SVG 1.1//EN" "http://www.w3.org/Graphics/SVG/1.1/DTD/svg11.dtd">
<svg version="1.1" id="Capa_1" xmlns="http://www.w3.org/2000/svg" xmlns:xlink="http://www.w3.org/1999/xlink" x="0px" y="0px"
	  viewBox="0 0 62.122 62.122" style="enable-background:new 0 0 62.122 62.122;"
	 xml:space="preserve">

	<g>
		<path d="M15.456,41.633c0,0,1.89-2.209,3.724-2.327c1.834-0.119,11.062,3.636,20.345,2.621c9.283-1.018,17.399-4.186,22.29-7.966
			c0,0,0.611-1.001,0.11-2.89l-0.418,0.038c-1.231,0.965-11.511,8.691-24.825,8.691c-0.947,0-1.901-0.041-2.836-0.12
			c-6.424-0.55-9.871-1.388-11.929-1.889c-1.111-0.271-1.844-0.449-2.439-0.449c-0.771,0-1.479,0.31-3.034,1.318l-0.292,0.19
			l-0.347-0.023L0.568,37.78c-0.275,0.978-0.503,2.391,0.102,3.296C1.67,42.577,15.456,41.633,15.456,41.633z"/>
		<path d="M0.916,36.761l14.96,1.027c1.676-1.089,2.565-1.487,3.601-1.487c2.008,0,4.564,1.495,14.457,2.342
			c0.929,0.079,1.843,0.117,2.746,0.117c10.634,0,19.398-5.157,22.783-7.46c0.972-0.663,1.503-1.091,1.503-1.091
			s-2.407-2.776-8.535-2.776c-2.788,0-5.143,0.11-6.956,0.11c-2.176,0-3.571-0.159-3.989-0.857c-0.766-1.281-5.8-2.776-5.8-2.776
			c-1.569-3.463-8.371-3.889-11.616-3.889c-1.058,0-1.736,0.044-1.736,0.044v3.523c-2.518,1.992-5.448,2.657-8.237,2.657
			c-5.577,0-10.587-2.657-10.587-2.657c-5.035,4.804-3.174,13.132-3.174,13.132L0.916,36.761z M25.922,27.006l2.182-3.712
			c0.154-0.262,0.401-0.448,0.695-0.524c0.292-0.077,0.599-0.033,0.86,0.121l1.521,0.894c0.164-0.174,0.423-0.228,0.638-0.101
			c0.215,0.126,0.294,0.379,0.222,0.606l1.521,0.894c0.54,0.319,0.72,1.017,0.402,1.555l-2.182,3.711
			c-0.153,0.262-0.4,0.448-0.694,0.524c-0.095,0.024-0.192,0.037-0.288,0.037c-0.2,0-0.396-0.053-0.573-0.156l0.264-0.449
			l0.263-0.449c0.04,0.023,0.107,0.005,0.129-0.033l2.182-3.711c0.026-0.045,0.013-0.104-0.032-0.13l-1.501-0.882l-0.932,1.583
			c-0.097,0.166-0.271,0.257-0.45,0.257c-0.089,0-0.18-0.023-0.264-0.072c-0.248-0.146-0.33-0.465-0.186-0.713l0.931-1.583
			l-1.502-0.884l-0.129,0.033l-2.183,3.711c-0.026,0.045-0.011,0.104,0.034,0.129l-0.264,0.449l-0.263,0.449
			C25.787,28.243,25.605,27.546,25.922,27.006z"/>
	</g>
</svg>
